#tb 0: 1/44100
#media_type 0: audio
#codec_id 0: pcm_s16le
#sample_rate 0: 44100
#channel_layout_name 0: stereo
0,          0,          0,     4096,    16384, 0xd6c0e8e3
0,       4096,       4096,     4096,    16384, 0xe7dbe5b9
0,       8192,       8192,     4096,    16384, 0xeeeee63d
0,      12288,      12288,     4096,    16384, 0x7da1e701
0,      16384,      16384,     4096,    16384, 0xfebbda7d
0,      20480,      20480,     4096,    16384, 0xef1fdc07
0,      24576,      24576,     4096,    16384, 0xa84cdb83
0,      28672,      28672,     4096,    16384, 0x154fdcbd
0,      32768,      32768,     4096,    16384, 0x5818e941
0,      36864,      36864,     4096,    16384, 0xe7dbe5b9
0,      40960,      40960,     4096,    16384, 0x9737843a
0,      45056,      45056,     4096,    16384, 0x9572d907
0,      49152,      49152,     4096,    16384, 0x330714d2
0,      53248,      53248,     4096,    16384, 0x645daa75
0,      57344,      57344,     4096,    16384, 0x5322f1b9
0,      61440,      61440,     4096,    16384, 0x89080f7c
0,      65536,      65536,     4096,    16384, 0x435cd08b
0,      69632,      69632,     4096,    16384, 0x36bfa3af
0,      73728,      73728,     4096,    16384, 0x3fbce4eb
0,      77824,      77824,     4096,    16384, 0xc30b1b0c
0,      81920,      81920,     4096,    16384, 0xb5e9cd43
0,      86016,      86016,     4096,    16384, 0x74ba710f
0,      90112,      90112,     4096,    16384, 0xabc2fbec
0,      94208,      94208,     4096,    16384, 0x62c80705
0,      98304,      98304,     4096,    16384, 0x9dd85c4d
0,     102400,     102400,     4096,    16384, 0x21d0b07a
0,     106496,     106496,     4096,    16384, 0xe1ebea58
0,     110592,     110592,     4096,    16384, 0xf9a9ed19
0,     114688,     114688,     4096,    16384, 0x9097fadf
0,     118784,     118784,     4096,    16384, 0x8687615e
0,     122880,     122880,     4096,    16384, 0xe6d1f30b
0,     126976,     126976,     4096,    16384, 0xdc16b7db
0,     131072,     131072,     4096,    16384, 0x2475aac5
0,     135168,     135168,     4096,    16384, 0xa4f2e58f
0,     139264,     139264,     4096,    16384, 0x801bd3c9
0,     143360,     143360,     4096,    16384, 0xa393ca4e
0,     147456,     147456,     4096,    16384, 0x0d8ee23c
0,     151552,     151552,     4096,    16384, 0x3aacdc2b
0,     155648,     155648,     4096,    16384, 0x42f6e56d
0,     159744,     159744,     4096,    16384, 0xd459e432
0,     163840,     163840,     4096,    16384, 0x71fcf11c
0,     167936,     167936,     4096,    16384, 0x8f0fed4a
0,     172032,     172032,     4096,    16384, 0x2f92dc12
0,     176128,     176128,     4096,    16384, 0x4dc349a0
0,     180224,     180224,     4096,    16384, 0x28cacefd
0,     184320,     184320,     4096,    16384, 0xfc18a542
0,     188416,     188416,     4096,    16384, 0x6f50ba16
0,     192512,     192512,     4096,    16384, 0x923bc233
0,     196608,     196608,     4096,    16384, 0x54efbcdd
0,     200704,     200704,     4096,    16384, 0x846a9aa0
0,     204800,     204800,     4096,    16384, 0x614ad5c1
0,     208896,     208896,     4096,    16384, 0xd839bd90
0,     212992,     212992,     4096,    16384, 0x28cacefd
0,     217088,     217088,     4096,    16384, 0xfc18a542
0,     221184,     221184,     4096,    16384, 0x6f50ba16
0,     225280,     225280,     4096,    16384, 0x923bc233
0,     229376,     229376,     4096,    16384, 0x54efbcdd
0,     233472,     233472,     4096,    16384, 0x846a9aa0
0,     237568,     237568,     4096,    16384, 0x614ad5c1
0,     241664,     241664,     4096,    16384, 0xd839bd90
0,     245760,     245760,     4096,    16384, 0x28cacefd
0,     249856,     249856,     4096,    16384, 0xfc18a542
0,     253952,     253952,     4096,    16384, 0x6f50ba16
0,     258048,     258048,     4096,    16384, 0x923bc233
0,     262144,     262144,     2456,     9824, 0x83fa1b45
